<!-- Generated by IcoMoon.io -->
<svg version="1.1" xmlns="http://www.w3.org/2000/svg" width="1024" height="1024" viewBox="0 0 1024 1024">
<g id="icomoon-ignore">
</g>
<path fill="#000" d="M278.017 611.115l-63.573 275.285c-1.969 8.337-1.378 17.071 1.696 25.067s8.486 14.878 15.532 19.746c7.045 4.873 15.396 7.505 23.961 7.556s16.946-2.483 24.049-7.27l232.319-154.88 232.32 154.88c7.27 4.826 15.838 7.309 24.563 7.117 8.721-0.188 17.173-3.046 24.222-8.188 7.049-5.137 12.356-12.314 15.206-20.557 2.85-8.247 3.106-17.165 0.734-25.562l-78.037-273.067 193.536-174.165c6.199-5.581 10.628-12.857 12.732-20.928 2.108-8.070 1.805-16.582-0.875-24.481s-7.612-14.84-14.195-19.964c-6.579-5.124-14.519-8.207-22.835-8.867l-243.243-19.371-105.259-233.003c-3.354-7.503-8.811-13.873-15.71-18.344-6.895-4.47-14.938-6.849-23.159-6.849-8.218 0-16.26 2.379-23.159 6.849-6.895 4.471-12.352 10.842-15.71 18.344l-105.257 233.003-243.243 19.328c-8.173 0.648-15.986 3.636-22.505 8.607s-11.467 11.716-14.253 19.426c-2.786 7.71-3.292 16.060-1.457 24.050s5.933 15.283 11.804 21.004l179.797 175.232zM399.745 426.539c7.616-0.6 14.93-3.238 21.175-7.636s11.194-10.397 14.322-17.366l76.757-169.856 76.757 169.856c3.132 6.969 8.077 12.967 14.323 17.366s13.559 7.037 21.175 7.636l169.472 13.44-139.563 125.611c-12.117 10.923-16.939 27.733-12.501 43.435l53.461 187.093-159.403-106.283c-6.997-4.698-15.232-7.202-23.659-7.202s-16.661 2.505-23.659 7.202l-166.569 111.061 44.8-193.963c1.643-7.134 1.422-14.571-0.64-21.594s-5.897-13.402-11.136-18.513l-129.621-126.379 174.507-13.909z"></path>
</svg>
